<?xml version="1.0" standalone="no"?>
<!DOCTYPE svg PUBLIC "-//W3C//DTD SVG 20010904//EN"
 "http://www.w3.org/TR/2001/REC-SVG-20010904/DTD/svg10.dtd">
<svg version="1.0" xmlns="http://www.w3.org/2000/svg"
 width="260.000000pt" height="260.000000pt" viewBox="0 0 260.000000 260.000000"
 preserveAspectRatio="xMidYMid meet">
<metadata>
Created by potrace 1.14, written by Peter Selinger 2001-2017
</metadata>
<g transform="translate(0.000000,260.000000) scale(0.100000,-0.100000)"
fill="#000000" stroke="none">
<path d="M760 2170 l0 -120 -33 0 c-56 0 -182 -37 -259 -75 -192 -97 -335
-274 -388 -482 -27 -104 -27 -272 0 -376 53 -208 196 -385 388 -482 77 -38
203 -75 259 -75 l33 0 0 -60 c0 -53 2 -60 20 -60 20 0 20 7 20 445 l0 445 480
0 480 0 0 -445 c0 -438 0 -445 20 -445 18 0 20 7 20 60 l0 60 43 0 c166 0 395
122 516 273 110 139 161 288 161 472 0 184 -51 333 -161 472 -121 151 -350
273 -516 273 l-43 0 0 120 c0 113 -1 120 -20 120 -20 0 -20 -7 -20 -460 l0
-460 -480 0 -480 0 0 460 c0 453 0 460 -20 460 -19 0 -20 -7 -20 -120z m0
-865 l0 -695 -22 0 c-73 1 -217 51 -306 107 -410 258 -432 862 -42 1148 93 68
258 133 343 134 l27 1 0 -695z m1168 680 c544 -128 729 -808 323 -1188 -112
-105 -295 -186 -418 -187 l-33 0 0 695 0 695 33 0 c17 0 60 -7 95 -15z"/>
</g>
</svg>
